<mxfile host="app.diagrams.net" modified="2022-10-24T14:18:03.608Z" agent="5.0 (Windows NT 10.0; Win64; x64) AppleWebKit/537.36 (KHTML, like Gecko) Chrome/106.0.0.0 Safari/537.36 Edg/106.0.1370.47" etag="FiE5hIAfZoliQSPK6oNt" version="20.5.0" type="github">
  <diagram name="Page-1" id="edf60f1a-56cd-e834-aa8a-f176f3a09ee4">
    <mxGraphModel dx="3195" dy="1448" grid="1" gridSize="10" guides="1" tooltips="1" connect="1" arrows="1" fold="1" page="1" pageScale="1" pageWidth="1100" pageHeight="850" background="none" math="0" shadow="0">
      <root>
        <mxCell id="0" />
        <mxCell id="1" parent="0" />
        <mxCell id="V8c99-lEmDVWt42Kv_we-5" value="&lt;font style=&quot;font-size: 12px;&quot;&gt;&lt;b&gt;CRE&lt;/b&gt;&lt;/font&gt;&lt;br&gt;Disponibiliza automaticamente a DC (ID_CRE) para o Geosite" style="rounded=0;whiteSpace=wrap;html=1;shadow=1;labelBackgroundColor=none;strokeWidth=1;fontFamily=Verdana;fontSize=8;align=center;fillColor=#CCE5FF;" parent="1" vertex="1">
          <mxGeometry x="635" y="10" width="120" height="60" as="geometry" />
        </mxCell>
        <mxCell id="V8c99-lEmDVWt42Kv_we-6" value="&lt;font style=&quot;font-size: 12px;&quot;&gt;&lt;b&gt;Geosite Web Rede&lt;/b&gt;&lt;/font&gt;&lt;br&gt;Usuário manualmente cria a área de projeto de Remoção" style="rounded=0;whiteSpace=wrap;html=1;shadow=1;labelBackgroundColor=none;strokeWidth=1;fontFamily=Verdana;fontSize=8;align=center;" parent="1" vertex="1">
          <mxGeometry x="630" y="100" width="130" height="60" as="geometry" />
        </mxCell>
        <mxCell id="V8c99-lEmDVWt42Kv_we-7" value="" style="endArrow=classic;html=1;rounded=0;fontSize=12;exitX=0.5;exitY=1;exitDx=0;exitDy=0;" parent="1" source="V8c99-lEmDVWt42Kv_we-5" target="V8c99-lEmDVWt42Kv_we-6" edge="1">
          <mxGeometry width="50" height="50" relative="1" as="geometry">
            <mxPoint x="170" y="50" as="sourcePoint" />
            <mxPoint x="220" as="targetPoint" />
          </mxGeometry>
        </mxCell>
        <mxCell id="V8c99-lEmDVWt42Kv_we-8" value="Lance está desenhado no cadastro do Geosite?" style="rhombus;whiteSpace=wrap;html=1;rounded=0;shadow=1;labelBackgroundColor=none;strokeWidth=1;fontFamily=Verdana;fontSize=8;align=center;" parent="1" vertex="1">
          <mxGeometry x="632.5" y="190" width="125" height="70" as="geometry" />
        </mxCell>
        <mxCell id="V8c99-lEmDVWt42Kv_we-9" value="" style="endArrow=classic;html=1;rounded=0;fontSize=12;exitX=0.5;exitY=1;exitDx=0;exitDy=0;" parent="1" source="V8c99-lEmDVWt42Kv_we-6" target="V8c99-lEmDVWt42Kv_we-8" edge="1">
          <mxGeometry width="50" height="50" relative="1" as="geometry">
            <mxPoint x="500" y="190" as="sourcePoint" />
            <mxPoint x="550" y="140" as="targetPoint" />
          </mxGeometry>
        </mxCell>
        <mxCell id="V8c99-lEmDVWt42Kv_we-11" value="Yes" style="edgeStyle=orthogonalEdgeStyle;rounded=0;html=1;labelBackgroundColor=none;startSize=5;endArrow=classicThin;endFill=1;endSize=5;jettySize=auto;orthogonalLoop=1;strokeWidth=1;fontFamily=Verdana;fontSize=8;entryX=0;entryY=0.5;entryDx=0;entryDy=0;" parent="1" target="UmW8kJtrCGWKn92JYN5o-1" edge="1">
          <mxGeometry x="-0.6667" y="10" relative="1" as="geometry">
            <mxPoint as="offset" />
            <mxPoint x="755" y="224.66" as="sourcePoint" />
            <mxPoint x="815" y="224.66" as="targetPoint" />
          </mxGeometry>
        </mxCell>
        <mxCell id="V8c99-lEmDVWt42Kv_we-12" value="No" style="edgeStyle=orthogonalEdgeStyle;rounded=0;html=1;labelBackgroundColor=none;startSize=5;endArrow=classicThin;endFill=1;endSize=5;jettySize=auto;orthogonalLoop=1;strokeWidth=1;fontFamily=Verdana;fontSize=8;entryX=0.5;entryY=0;entryDx=0;entryDy=0;exitX=0;exitY=0.5;exitDx=0;exitDy=0;" parent="1" target="UmW8kJtrCGWKn92JYN5o-58" edge="1" source="V8c99-lEmDVWt42Kv_we-8">
          <mxGeometry x="-0.5" y="10" relative="1" as="geometry">
            <mxPoint as="offset" />
            <mxPoint x="696.0000000000001" y="259" as="sourcePoint" />
            <mxPoint x="690" y="310" as="targetPoint" />
          </mxGeometry>
        </mxCell>
        <mxCell id="V8c99-lEmDVWt42Kv_we-14" value="&lt;font style=&quot;font-size: 12px;&quot;&gt;&lt;b&gt;Geosite Web Rede&lt;/b&gt;&lt;/font&gt;&lt;br&gt;Usuário seleciona o lance a ser removido direto no mapa" style="whiteSpace=wrap;html=1;rounded=0;shadow=1;labelBackgroundColor=none;strokeWidth=1;fontFamily=Verdana;fontSize=8;align=center;" parent="1" vertex="1">
          <mxGeometry x="1050" y="197.5" width="140" height="55" as="geometry" />
        </mxCell>
        <mxCell id="UmW8kJtrCGWKn92JYN5o-1" value="Lance está com as informações de utilização preenchidas?" style="rhombus;whiteSpace=wrap;html=1;rounded=0;shadow=1;labelBackgroundColor=none;strokeWidth=1;fontFamily=Verdana;fontSize=8;align=center;" parent="1" vertex="1">
          <mxGeometry x="840" y="190" width="125" height="70" as="geometry" />
        </mxCell>
        <mxCell id="UmW8kJtrCGWKn92JYN5o-4" value="Yes" style="edgeStyle=orthogonalEdgeStyle;rounded=0;html=1;labelBackgroundColor=none;startSize=5;endArrow=classicThin;endFill=1;endSize=5;jettySize=auto;orthogonalLoop=1;strokeWidth=1;fontFamily=Verdana;fontSize=8;entryX=0;entryY=0.5;entryDx=0;entryDy=0;exitX=1;exitY=0.5;exitDx=0;exitDy=0;" parent="1" source="UmW8kJtrCGWKn92JYN5o-1" target="V8c99-lEmDVWt42Kv_we-14" edge="1">
          <mxGeometry x="-0.6667" y="10" relative="1" as="geometry">
            <mxPoint as="offset" />
            <mxPoint x="970" y="225" as="sourcePoint" />
            <mxPoint x="850" y="279" as="targetPoint" />
          </mxGeometry>
        </mxCell>
        <mxCell id="UmW8kJtrCGWKn92JYN5o-5" value="&lt;font style=&quot;font-size: 12px;&quot;&gt;&lt;b&gt;Geosite Desktop&lt;/b&gt;&lt;/font&gt;&lt;br&gt;Usuário completa o cadastro das utilizações do lance" style="whiteSpace=wrap;html=1;rounded=0;shadow=1;labelBackgroundColor=none;strokeWidth=1;fontFamily=Verdana;fontSize=8;align=center;" parent="1" vertex="1">
          <mxGeometry x="832.5" y="300" width="140" height="55" as="geometry" />
        </mxCell>
        <mxCell id="UmW8kJtrCGWKn92JYN5o-6" value="No" style="edgeStyle=orthogonalEdgeStyle;rounded=0;html=1;labelBackgroundColor=none;startSize=5;endArrow=classicThin;endFill=1;endSize=5;jettySize=auto;orthogonalLoop=1;strokeWidth=1;fontFamily=Verdana;fontSize=8;entryX=0.5;entryY=0;entryDx=0;entryDy=0;exitX=0.5;exitY=1;exitDx=0;exitDy=0;" parent="1" source="UmW8kJtrCGWKn92JYN5o-1" target="UmW8kJtrCGWKn92JYN5o-5" edge="1">
          <mxGeometry x="-0.5" y="10" relative="1" as="geometry">
            <mxPoint as="offset" />
            <mxPoint x="706" y="269" as="sourcePoint" />
            <mxPoint x="706" y="309" as="targetPoint" />
          </mxGeometry>
        </mxCell>
        <mxCell id="UmW8kJtrCGWKn92JYN5o-7" value="" style="endArrow=classic;html=1;rounded=0;fontSize=12;exitX=1;exitY=0.5;exitDx=0;exitDy=0;entryX=0;entryY=0.5;entryDx=0;entryDy=0;" parent="1" source="UmW8kJtrCGWKn92JYN5o-5" target="V8c99-lEmDVWt42Kv_we-14" edge="1">
          <mxGeometry width="50" height="50" relative="1" as="geometry">
            <mxPoint x="1070" y="360" as="sourcePoint" />
            <mxPoint x="1000" y="240" as="targetPoint" />
            <Array as="points">
              <mxPoint x="1000" y="328" />
              <mxPoint x="1000" y="225" />
            </Array>
          </mxGeometry>
        </mxCell>
        <mxCell id="UmW8kJtrCGWKn92JYN5o-8" value="Lance está imobilizado?" style="rhombus;whiteSpace=wrap;html=1;rounded=0;shadow=1;labelBackgroundColor=none;strokeWidth=1;fontFamily=Verdana;fontSize=8;align=center;" parent="1" vertex="1">
          <mxGeometry x="1268.75" y="300" width="122.5" height="60" as="geometry" />
        </mxCell>
        <mxCell id="UmW8kJtrCGWKn92JYN5o-9" value="" style="endArrow=classic;html=1;rounded=0;fontSize=12;entryX=0.5;entryY=0;entryDx=0;entryDy=0;exitX=0.5;exitY=1;exitDx=0;exitDy=0;" parent="1" source="UmW8kJtrCGWKn92JYN5o-12" target="UmW8kJtrCGWKn92JYN5o-8" edge="1">
          <mxGeometry width="50" height="50" relative="1" as="geometry">
            <mxPoint x="790" y="470" as="sourcePoint" />
            <mxPoint x="840" y="420" as="targetPoint" />
          </mxGeometry>
        </mxCell>
        <mxCell id="UmW8kJtrCGWKn92JYN5o-11" value="No" style="edgeStyle=orthogonalEdgeStyle;rounded=0;html=1;labelBackgroundColor=none;startSize=5;endArrow=classicThin;endFill=1;endSize=5;jettySize=auto;orthogonalLoop=1;strokeWidth=1;fontFamily=Verdana;fontSize=8;exitX=0.5;exitY=1;exitDx=0;exitDy=0;entryX=0.5;entryY=0;entryDx=0;entryDy=0;" parent="1" source="UmW8kJtrCGWKn92JYN5o-8" target="UmW8kJtrCGWKn92JYN5o-13" edge="1">
          <mxGeometry x="-0.5" y="10" relative="1" as="geometry">
            <mxPoint as="offset" />
            <mxPoint x="706" y="364" as="sourcePoint" />
            <mxPoint x="1330" y="420" as="targetPoint" />
          </mxGeometry>
        </mxCell>
        <mxCell id="UmW8kJtrCGWKn92JYN5o-12" value="&lt;font style=&quot;font-size: 12px;&quot;&gt;&lt;b&gt;Geosite Web Rede&lt;/b&gt;&lt;/font&gt;&lt;br&gt;Lance é registrado na nova tela do projeto de Remoção" style="whiteSpace=wrap;html=1;rounded=0;shadow=1;labelBackgroundColor=none;strokeWidth=1;fontFamily=Verdana;fontSize=8;align=center;" parent="1" vertex="1">
          <mxGeometry x="1260" y="197.5" width="140" height="55" as="geometry" />
        </mxCell>
        <mxCell id="UmW8kJtrCGWKn92JYN5o-13" value="&lt;font style=&quot;font-size: 12px;&quot;&gt;&lt;b&gt;Geosite Web Rede&lt;/b&gt;&lt;/font&gt;&lt;br&gt;Automaticamente o Geosite tenta fazer a adequação com os pontos genéricos disponíveis na estação contábil do projeto de Remoção" style="whiteSpace=wrap;html=1;rounded=0;shadow=1;labelBackgroundColor=none;strokeWidth=1;fontFamily=Verdana;fontSize=8;align=center;" parent="1" vertex="1">
          <mxGeometry x="1250" y="410" width="160" height="70" as="geometry" />
        </mxCell>
        <mxCell id="UmW8kJtrCGWKn92JYN5o-14" value="&lt;font style=&quot;font-size: 12px;&quot;&gt;&lt;b&gt;Geosite Web Rede&lt;/b&gt;&lt;/font&gt;&lt;br&gt;Automaticamente o Geosite tenta criar um projeto de transferência de ponto genérico para adequar o lance" style="whiteSpace=wrap;html=1;rounded=0;shadow=1;labelBackgroundColor=none;strokeWidth=1;fontFamily=Verdana;fontSize=8;align=center;" parent="1" vertex="1">
          <mxGeometry x="1010" y="510" width="170" height="65" as="geometry" />
        </mxCell>
        <mxCell id="UmW8kJtrCGWKn92JYN5o-15" value="&lt;font style=&quot;font-size: 12px;&quot;&gt;&lt;b&gt;Geosite Web Rede&lt;/b&gt;&lt;/font&gt;&lt;br&gt;Automaticamente o Geosite tenta criar um projeto de Readquação com o Nº e Sub. Nº a serem informados pelo usuário" style="whiteSpace=wrap;html=1;rounded=0;shadow=1;labelBackgroundColor=none;strokeWidth=1;fontFamily=Verdana;fontSize=8;align=center;" parent="1" vertex="1">
          <mxGeometry x="760" y="760" width="155" height="60" as="geometry" />
        </mxCell>
        <mxCell id="UmW8kJtrCGWKn92JYN5o-16" value="Tentativa de adequação foi bem sucedida?" style="rhombus;whiteSpace=wrap;html=1;rounded=0;shadow=1;labelBackgroundColor=none;strokeWidth=1;fontFamily=Verdana;fontSize=8;align=center;" parent="1" vertex="1">
          <mxGeometry x="1284.38" y="550" width="91.25" height="80" as="geometry" />
        </mxCell>
        <mxCell id="UmW8kJtrCGWKn92JYN5o-17" value="" style="endArrow=classic;html=1;rounded=0;fontSize=12;entryX=0;entryY=0.5;entryDx=0;entryDy=0;exitX=1;exitY=0.5;exitDx=0;exitDy=0;" parent="1" source="V8c99-lEmDVWt42Kv_we-14" target="UmW8kJtrCGWKn92JYN5o-12" edge="1">
          <mxGeometry width="50" height="50" relative="1" as="geometry">
            <mxPoint x="1030" y="380" as="sourcePoint" />
            <mxPoint x="1080" y="330" as="targetPoint" />
          </mxGeometry>
        </mxCell>
        <mxCell id="UmW8kJtrCGWKn92JYN5o-18" value="" style="endArrow=classic;html=1;rounded=0;fontSize=12;entryX=0.5;entryY=0;entryDx=0;entryDy=0;exitX=0.5;exitY=1;exitDx=0;exitDy=0;" parent="1" source="UmW8kJtrCGWKn92JYN5o-13" target="UmW8kJtrCGWKn92JYN5o-16" edge="1">
          <mxGeometry width="50" height="50" relative="1" as="geometry">
            <mxPoint x="1150" y="560" as="sourcePoint" />
            <mxPoint x="1200" y="510" as="targetPoint" />
          </mxGeometry>
        </mxCell>
        <mxCell id="UmW8kJtrCGWKn92JYN5o-19" value="Yes" style="edgeStyle=orthogonalEdgeStyle;rounded=0;html=1;labelBackgroundColor=none;startSize=5;endArrow=classicThin;endFill=1;endSize=5;jettySize=auto;orthogonalLoop=1;strokeWidth=1;fontFamily=Verdana;fontSize=8;exitX=1;exitY=0.5;exitDx=0;exitDy=0;entryX=1;entryY=0.5;entryDx=0;entryDy=0;" parent="1" source="UmW8kJtrCGWKn92JYN5o-8" target="UmW8kJtrCGWKn92JYN5o-45" edge="1">
          <mxGeometry x="-0.6667" y="10" relative="1" as="geometry">
            <mxPoint as="offset" />
            <mxPoint x="1391.25" y="329.5" as="sourcePoint" />
            <mxPoint x="1180" y="330" as="targetPoint" />
            <Array as="points">
              <mxPoint x="1510" y="330" />
              <mxPoint x="1510" y="350" />
              <mxPoint x="1760" y="350" />
              <mxPoint x="1760" y="945" />
            </Array>
          </mxGeometry>
        </mxCell>
        <mxCell id="UmW8kJtrCGWKn92JYN5o-20" value="Yes" style="edgeStyle=orthogonalEdgeStyle;rounded=0;html=1;labelBackgroundColor=none;startSize=5;endArrow=classicThin;endFill=1;endSize=5;jettySize=auto;orthogonalLoop=1;strokeWidth=1;fontFamily=Verdana;fontSize=8;exitX=0.5;exitY=1;exitDx=0;exitDy=0;entryX=1;entryY=0.25;entryDx=0;entryDy=0;startArrow=none;" parent="1" source="UmW8kJtrCGWKn92JYN5o-16" target="UmW8kJtrCGWKn92JYN5o-45" edge="1">
          <mxGeometry x="-0.6667" y="10" relative="1" as="geometry">
            <mxPoint as="offset" />
            <mxPoint x="1284.38" y="559.5" as="sourcePoint" />
            <mxPoint x="1195.63" y="559.5" as="targetPoint" />
            <Array as="points">
              <mxPoint x="1330" y="717" />
              <mxPoint x="1260" y="717" />
              <mxPoint x="1260" y="930" />
            </Array>
          </mxGeometry>
        </mxCell>
        <mxCell id="UmW8kJtrCGWKn92JYN5o-21" value="No" style="edgeStyle=orthogonalEdgeStyle;rounded=0;html=1;labelBackgroundColor=none;startSize=5;endArrow=classicThin;endFill=1;endSize=5;jettySize=auto;orthogonalLoop=1;strokeWidth=1;fontFamily=Verdana;fontSize=8;exitX=0;exitY=0.5;exitDx=0;exitDy=0;entryX=1;entryY=0.5;entryDx=0;entryDy=0;" parent="1" source="UmW8kJtrCGWKn92JYN5o-16" target="UmW8kJtrCGWKn92JYN5o-14" edge="1">
          <mxGeometry x="-0.5" y="10" relative="1" as="geometry">
            <mxPoint as="offset" />
            <mxPoint x="1420" y="590" as="sourcePoint" />
            <mxPoint x="1420" y="640" as="targetPoint" />
          </mxGeometry>
        </mxCell>
        <mxCell id="UmW8kJtrCGWKn92JYN5o-23" value="" style="endArrow=classic;html=1;rounded=0;fontSize=12;entryX=0.5;entryY=0;entryDx=0;entryDy=0;exitX=0.5;exitY=1;exitDx=0;exitDy=0;" parent="1" source="UmW8kJtrCGWKn92JYN5o-14" target="UmW8kJtrCGWKn92JYN5o-22" edge="1">
          <mxGeometry width="50" height="50" relative="1" as="geometry">
            <mxPoint x="1230" y="540" as="sourcePoint" />
            <mxPoint x="1280" y="490" as="targetPoint" />
          </mxGeometry>
        </mxCell>
        <mxCell id="UmW8kJtrCGWKn92JYN5o-24" value="No" style="edgeStyle=orthogonalEdgeStyle;rounded=0;html=1;labelBackgroundColor=none;startSize=5;endArrow=classicThin;endFill=1;endSize=5;jettySize=auto;orthogonalLoop=1;strokeWidth=1;fontFamily=Verdana;fontSize=8;exitX=0.5;exitY=1;exitDx=0;exitDy=0;entryX=0.5;entryY=0;entryDx=0;entryDy=0;" parent="1" source="UmW8kJtrCGWKn92JYN5o-22" target="UmW8kJtrCGWKn92JYN5o-15" edge="1">
          <mxGeometry x="-0.5" y="10" relative="1" as="geometry">
            <mxPoint as="offset" />
            <mxPoint x="1385.63" y="570" as="sourcePoint" />
            <mxPoint x="1455" y="570" as="targetPoint" />
          </mxGeometry>
        </mxCell>
        <mxCell id="UmW8kJtrCGWKn92JYN5o-25" value="Yes" style="edgeStyle=orthogonalEdgeStyle;rounded=0;html=1;labelBackgroundColor=none;startSize=5;endArrow=classicThin;endFill=1;endSize=5;jettySize=auto;orthogonalLoop=1;strokeWidth=1;fontFamily=Verdana;fontSize=8;exitX=0;exitY=0.5;exitDx=0;exitDy=0;entryX=1;entryY=0.5;entryDx=0;entryDy=0;" parent="1" source="UmW8kJtrCGWKn92JYN5o-22" target="UmW8kJtrCGWKn92JYN5o-48" edge="1">
          <mxGeometry x="-0.6667" y="10" relative="1" as="geometry">
            <mxPoint as="offset" />
            <mxPoint x="1428.7800000000002" y="690.5" as="sourcePoint" />
            <mxPoint x="1360" y="695" as="targetPoint" />
            <Array as="points">
              <mxPoint x="980" y="703" />
              <mxPoint x="980" y="683" />
            </Array>
          </mxGeometry>
        </mxCell>
        <mxCell id="UmW8kJtrCGWKn92JYN5o-26" value="Tentativa de criiar o projeto de readequação foi bem sucedida?" style="rhombus;whiteSpace=wrap;html=1;rounded=0;shadow=1;labelBackgroundColor=none;strokeWidth=1;fontFamily=Verdana;fontSize=8;align=center;" parent="1" vertex="1">
          <mxGeometry x="459.9999999999999" y="850" width="175.63" height="90" as="geometry" />
        </mxCell>
        <mxCell id="UmW8kJtrCGWKn92JYN5o-27" value="" style="endArrow=classic;html=1;rounded=0;fontSize=12;entryX=0.5;entryY=0;entryDx=0;entryDy=0;exitX=0;exitY=0.5;exitDx=0;exitDy=0;" parent="1" source="UmW8kJtrCGWKn92JYN5o-15" target="UmW8kJtrCGWKn92JYN5o-26" edge="1">
          <mxGeometry width="50" height="50" relative="1" as="geometry">
            <mxPoint x="1230" y="800" as="sourcePoint" />
            <mxPoint x="1280" y="750" as="targetPoint" />
          </mxGeometry>
        </mxCell>
        <mxCell id="UmW8kJtrCGWKn92JYN5o-28" value="No" style="edgeStyle=orthogonalEdgeStyle;rounded=0;html=1;labelBackgroundColor=none;startSize=5;endArrow=classicThin;endFill=1;endSize=5;jettySize=auto;orthogonalLoop=1;strokeWidth=1;fontFamily=Verdana;fontSize=8;exitX=0.5;exitY=1;exitDx=0;exitDy=0;entryX=0.5;entryY=0;entryDx=0;entryDy=0;" parent="1" target="UmW8kJtrCGWKn92JYN5o-30" edge="1" source="UmW8kJtrCGWKn92JYN5o-26">
          <mxGeometry x="-0.5" y="10" relative="1" as="geometry">
            <mxPoint as="offset" />
            <mxPoint x="1529.5049999999997" y="990" as="sourcePoint" />
            <mxPoint x="1529.5" y="1040" as="targetPoint" />
          </mxGeometry>
        </mxCell>
        <mxCell id="UmW8kJtrCGWKn92JYN5o-29" value="Yes" style="edgeStyle=orthogonalEdgeStyle;rounded=0;html=1;labelBackgroundColor=none;startSize=5;endArrow=classicThin;endFill=1;endSize=5;jettySize=auto;orthogonalLoop=1;strokeWidth=1;fontFamily=Verdana;fontSize=8;exitX=1;exitY=0.5;exitDx=0;exitDy=0;entryX=0;entryY=0.5;entryDx=0;entryDy=0;" parent="1" source="UmW8kJtrCGWKn92JYN5o-26" target="UmW8kJtrCGWKn92JYN5o-32" edge="1">
          <mxGeometry x="-0.6667" y="10" relative="1" as="geometry">
            <mxPoint as="offset" />
            <mxPoint x="1444.9999999999995" y="944.5" as="sourcePoint" />
            <mxPoint x="1390" y="945" as="targetPoint" />
          </mxGeometry>
        </mxCell>
        <mxCell id="UmW8kJtrCGWKn92JYN5o-30" value="&lt;font style=&quot;font-size: 12px;&quot;&gt;&lt;b&gt;Geosite Web Rede&lt;/b&gt;&lt;/font&gt;&lt;br&gt;ERRO. Registro do lance é deletado da nova tela do projeto de Remoção." style="whiteSpace=wrap;html=1;rounded=0;shadow=1;labelBackgroundColor=none;strokeWidth=1;fontFamily=Verdana;fontSize=8;align=center;fillColor=#FFCCCC;" parent="1" vertex="1">
          <mxGeometry x="480.63" y="1005" width="155" height="60" as="geometry" />
        </mxCell>
        <mxCell id="UmW8kJtrCGWKn92JYN5o-31" value="&lt;font style=&quot;font-size: 12px;&quot;&gt;&lt;b&gt;Geosite Web Rede&lt;/b&gt;&lt;/font&gt;&lt;br&gt;Mensagem de erro do projeto de readequação é apresentada para o usuário." style="whiteSpace=wrap;html=1;rounded=0;shadow=1;labelBackgroundColor=none;strokeWidth=1;fontFamily=Verdana;fontSize=8;align=center;" parent="1" vertex="1">
          <mxGeometry x="720.0000000000001" y="1020" width="155" height="60" as="geometry" />
        </mxCell>
        <mxCell id="UmW8kJtrCGWKn92JYN5o-32" value="Projeto de readequação conciliou com sucesso com o SAP?" style="rhombus;whiteSpace=wrap;html=1;rounded=0;shadow=1;labelBackgroundColor=none;strokeWidth=1;fontFamily=Verdana;fontSize=8;align=center;" parent="1" vertex="1">
          <mxGeometry x="731.88" y="865" width="131.25" height="100" as="geometry" />
        </mxCell>
        <mxCell id="UmW8kJtrCGWKn92JYN5o-33" value="Yes" style="edgeStyle=orthogonalEdgeStyle;rounded=0;html=1;labelBackgroundColor=none;startSize=5;endArrow=classicThin;endFill=1;endSize=5;jettySize=auto;orthogonalLoop=1;strokeWidth=1;fontFamily=Verdana;fontSize=8;entryX=0;entryY=0.75;entryDx=0;entryDy=0;" parent="1" source="UmW8kJtrCGWKn92JYN5o-32" target="UmW8kJtrCGWKn92JYN5o-45" edge="1">
          <mxGeometry x="-0.6667" y="10" relative="1" as="geometry">
            <mxPoint as="offset" />
            <mxPoint x="1249.9999999999995" y="944.5" as="sourcePoint" />
            <mxPoint x="1167.81" y="944.5" as="targetPoint" />
          </mxGeometry>
        </mxCell>
        <mxCell id="UmW8kJtrCGWKn92JYN5o-34" value="No" style="edgeStyle=orthogonalEdgeStyle;rounded=0;html=1;labelBackgroundColor=none;startSize=5;endArrow=classicThin;endFill=1;endSize=5;jettySize=auto;orthogonalLoop=1;strokeWidth=1;fontFamily=Verdana;fontSize=8;exitX=0.5;exitY=1;exitDx=0;exitDy=0;entryX=0.5;entryY=0;entryDx=0;entryDy=0;" parent="1" source="UmW8kJtrCGWKn92JYN5o-32" target="UmW8kJtrCGWKn92JYN5o-31" edge="1">
          <mxGeometry x="-0.5" y="10" relative="1" as="geometry">
            <mxPoint as="offset" />
            <mxPoint x="1310.0049999999997" y="1020" as="sourcePoint" />
            <mxPoint x="1326" y="1060" as="targetPoint" />
          </mxGeometry>
        </mxCell>
        <mxCell id="UmW8kJtrCGWKn92JYN5o-35" value="Erro apresentado é sobre o Nº e Sub. Nº do imobilizado?" style="rhombus;whiteSpace=wrap;html=1;rounded=0;shadow=1;labelBackgroundColor=none;strokeWidth=1;fontFamily=Verdana;fontSize=8;align=center;" parent="1" vertex="1">
          <mxGeometry x="735.3199999999998" y="1130" width="124.38" height="100" as="geometry" />
        </mxCell>
        <mxCell id="UmW8kJtrCGWKn92JYN5o-36" value="" style="endArrow=classic;html=1;rounded=0;fontSize=12;exitX=0.5;exitY=1;exitDx=0;exitDy=0;entryX=0.5;entryY=0;entryDx=0;entryDy=0;" parent="1" source="UmW8kJtrCGWKn92JYN5o-31" target="UmW8kJtrCGWKn92JYN5o-35" edge="1">
          <mxGeometry width="50" height="50" relative="1" as="geometry">
            <mxPoint x="1230" y="1090" as="sourcePoint" />
            <mxPoint x="1326" y="1150" as="targetPoint" />
          </mxGeometry>
        </mxCell>
        <mxCell id="UmW8kJtrCGWKn92JYN5o-37" value="No" style="edgeStyle=orthogonalEdgeStyle;rounded=0;html=1;labelBackgroundColor=none;startSize=5;endArrow=classicThin;endFill=1;endSize=5;jettySize=auto;orthogonalLoop=1;strokeWidth=1;fontFamily=Verdana;fontSize=8;entryX=1;entryY=0.5;entryDx=0;entryDy=0;exitX=0;exitY=0.5;exitDx=0;exitDy=0;" parent="1" source="UmW8kJtrCGWKn92JYN5o-35" target="UmW8kJtrCGWKn92JYN5o-44" edge="1">
          <mxGeometry x="-0.5" y="10" relative="1" as="geometry">
            <mxPoint as="offset" />
            <mxPoint x="1420.005" y="1205" as="sourcePoint" />
            <mxPoint x="1460" y="1210" as="targetPoint" />
          </mxGeometry>
        </mxCell>
        <mxCell id="UmW8kJtrCGWKn92JYN5o-38" value="Yes" style="edgeStyle=orthogonalEdgeStyle;rounded=0;html=1;labelBackgroundColor=none;startSize=5;endArrow=classicThin;endFill=1;endSize=5;jettySize=auto;orthogonalLoop=1;strokeWidth=1;fontFamily=Verdana;fontSize=8;exitX=1;exitY=0.5;exitDx=0;exitDy=0;entryX=0;entryY=0.5;entryDx=0;entryDy=0;" parent="1" source="UmW8kJtrCGWKn92JYN5o-35" target="UmW8kJtrCGWKn92JYN5o-39" edge="1">
          <mxGeometry x="-0.6667" y="10" relative="1" as="geometry">
            <mxPoint as="offset" />
            <mxPoint x="1242.2" y="1240.5" as="sourcePoint" />
            <mxPoint x="1180" y="1210" as="targetPoint" />
          </mxGeometry>
        </mxCell>
        <mxCell id="UmW8kJtrCGWKn92JYN5o-39" value="&lt;font style=&quot;font-size: 12px;&quot;&gt;&lt;b&gt;Geosite Web Rede&lt;/b&gt;&lt;/font&gt;&lt;br&gt;Usuário corrige a informação do Nº e sub. Nº do imobilizado." style="whiteSpace=wrap;html=1;rounded=0;shadow=1;labelBackgroundColor=none;strokeWidth=1;fontFamily=Verdana;fontSize=8;align=center;" parent="1" vertex="1">
          <mxGeometry x="1040" y="1180" width="165" height="60" as="geometry" />
        </mxCell>
        <mxCell id="UmW8kJtrCGWKn92JYN5o-40" value="&lt;font style=&quot;font-size: 12px;&quot;&gt;&lt;b&gt;Geosite Web Rede&lt;/b&gt;&lt;/font&gt;&lt;br&gt;Projeto de readequação é retramitado automaticamente para uma nova tentativa de conciliação com o SAP." style="whiteSpace=wrap;html=1;rounded=0;shadow=1;labelBackgroundColor=none;strokeWidth=1;fontFamily=Verdana;fontSize=8;align=center;" parent="1" vertex="1">
          <mxGeometry x="1037.5" y="1060" width="170" height="60" as="geometry" />
        </mxCell>
        <mxCell id="UmW8kJtrCGWKn92JYN5o-41" value="" style="endArrow=classic;html=1;rounded=0;fontSize=12;exitX=0.5;exitY=0;exitDx=0;exitDy=0;entryX=0.5;entryY=1;entryDx=0;entryDy=0;" parent="1" source="UmW8kJtrCGWKn92JYN5o-39" target="UmW8kJtrCGWKn92JYN5o-40" edge="1">
          <mxGeometry width="50" height="50" relative="1" as="geometry">
            <mxPoint x="1230" y="1010" as="sourcePoint" />
            <mxPoint x="1280" y="960" as="targetPoint" />
          </mxGeometry>
        </mxCell>
        <mxCell id="UmW8kJtrCGWKn92JYN5o-42" value="" style="endArrow=classic;html=1;rounded=0;fontSize=12;exitX=0.5;exitY=0;exitDx=0;exitDy=0;entryX=1;entryY=1;entryDx=0;entryDy=0;" parent="1" source="UmW8kJtrCGWKn92JYN5o-40" target="UmW8kJtrCGWKn92JYN5o-32" edge="1">
          <mxGeometry width="50" height="50" relative="1" as="geometry">
            <mxPoint x="1230" y="1010" as="sourcePoint" />
            <mxPoint x="1280" y="960" as="targetPoint" />
          </mxGeometry>
        </mxCell>
        <mxCell id="UmW8kJtrCGWKn92JYN5o-44" value="&lt;font style=&quot;font-size: 12px;&quot;&gt;&lt;b&gt;Geosite Web Rede&lt;/b&gt;&lt;/font&gt;&lt;br&gt;ERRO. Usuário deve deletar o registro desse lance da nova tela do projeto de Remoção." style="whiteSpace=wrap;html=1;rounded=0;shadow=1;labelBackgroundColor=none;strokeWidth=1;fontFamily=Verdana;fontSize=8;align=center;fillColor=#FFCCCC;" parent="1" vertex="1">
          <mxGeometry x="460" y="1145" width="180" height="60" as="geometry" />
        </mxCell>
        <mxCell id="UmW8kJtrCGWKn92JYN5o-45" value="&lt;font style=&quot;font-size: 12px;&quot;&gt;&lt;b&gt;Geosite Web Rede&lt;/b&gt;&lt;/font&gt;&lt;br&gt;Desenho e dados tabulares do lance de cabo é copiado do cadastro para a área desse projeto de Remoção." style="whiteSpace=wrap;html=1;rounded=0;shadow=1;labelBackgroundColor=none;strokeWidth=1;fontFamily=Verdana;fontSize=8;align=center;" parent="1" vertex="1">
          <mxGeometry x="1010" y="915" width="180" height="60" as="geometry" />
        </mxCell>
        <mxCell id="UmW8kJtrCGWKn92JYN5o-47" value="" style="endArrow=classic;html=1;rounded=0;fontSize=12;exitX=0.5;exitY=0;exitDx=0;exitDy=0;entryX=0.5;entryY=1;entryDx=0;entryDy=0;entryPerimeter=0;" parent="1" source="UmW8kJtrCGWKn92JYN5o-45" target="tH0Oy9MxxvEVRa18XON7-15" edge="1">
          <mxGeometry width="50" height="50" relative="1" as="geometry">
            <mxPoint x="1230" y="910" as="sourcePoint" />
            <mxPoint x="1280" y="860" as="targetPoint" />
          </mxGeometry>
        </mxCell>
        <mxCell id="UmW8kJtrCGWKn92JYN5o-48" value="Projeto de transferência de ponto genérico conciliou com sucesso com o SAP?" style="rhombus;whiteSpace=wrap;html=1;rounded=0;shadow=1;labelBackgroundColor=none;strokeWidth=1;fontFamily=Verdana;fontSize=8;align=center;" parent="1" vertex="1">
          <mxGeometry x="703.75" y="630" width="171.25" height="105" as="geometry" />
        </mxCell>
        <mxCell id="UmW8kJtrCGWKn92JYN5o-49" value="No" style="edgeStyle=orthogonalEdgeStyle;rounded=0;html=1;labelBackgroundColor=none;startSize=5;endArrow=classicThin;endFill=1;endSize=5;jettySize=auto;orthogonalLoop=1;strokeWidth=1;fontFamily=Verdana;fontSize=8;exitX=0;exitY=0.5;exitDx=0;exitDy=0;entryX=1;entryY=0.5;entryDx=0;entryDy=0;" parent="1" source="UmW8kJtrCGWKn92JYN5o-48" target="UmW8kJtrCGWKn92JYN5o-51" edge="1">
          <mxGeometry x="-0.5" y="10" relative="1" as="geometry">
            <mxPoint as="offset" />
            <mxPoint x="1030" y="660" as="sourcePoint" />
            <mxPoint x="1170" y="690" as="targetPoint" />
          </mxGeometry>
        </mxCell>
        <mxCell id="UmW8kJtrCGWKn92JYN5o-50" value="Yes" style="edgeStyle=orthogonalEdgeStyle;rounded=0;html=1;labelBackgroundColor=none;startSize=5;endArrow=classicThin;endFill=1;endSize=5;jettySize=auto;orthogonalLoop=1;strokeWidth=1;fontFamily=Verdana;fontSize=8;exitX=0.5;exitY=0;exitDx=0;exitDy=0;entryX=0;entryY=0.75;entryDx=0;entryDy=0;" parent="1" source="UmW8kJtrCGWKn92JYN5o-48" target="UmW8kJtrCGWKn92JYN5o-13" edge="1">
          <mxGeometry x="-0.6667" y="10" relative="1" as="geometry">
            <mxPoint as="offset" />
            <mxPoint x="1452.1899999999996" y="705" as="sourcePoint" />
            <mxPoint x="1230" y="480" as="targetPoint" />
            <Array as="points">
              <mxPoint x="789" y="560" />
              <mxPoint x="770" y="560" />
              <mxPoint x="770" y="463" />
            </Array>
          </mxGeometry>
        </mxCell>
        <mxCell id="UmW8kJtrCGWKn92JYN5o-51" value="&lt;font style=&quot;font-size: 12px;&quot;&gt;&lt;b&gt;Geosite Web Rede&lt;/b&gt;&lt;/font&gt;&lt;br&gt;Mensagem de erro do projeto de transferência de ponto genérico é apresentada para o usuário." style="whiteSpace=wrap;html=1;rounded=0;shadow=1;labelBackgroundColor=none;strokeWidth=1;fontFamily=Verdana;fontSize=8;align=center;" parent="1" vertex="1">
          <mxGeometry x="460.0000000000001" y="687.5" width="155" height="60" as="geometry" />
        </mxCell>
        <mxCell id="UmW8kJtrCGWKn92JYN5o-52" value="Usuário decidiu tentar uma nova transferência&amp;nbsp; de pontos genéricos automática?" style="rhombus;whiteSpace=wrap;html=1;rounded=0;shadow=1;labelBackgroundColor=none;strokeWidth=1;fontFamily=Verdana;fontSize=8;align=center;" parent="1" vertex="1">
          <mxGeometry x="70" y="720" width="174.38" height="100" as="geometry" />
        </mxCell>
        <mxCell id="UmW8kJtrCGWKn92JYN5o-53" value="" style="endArrow=classic;html=1;rounded=0;fontSize=12;exitX=0;exitY=0.5;exitDx=0;exitDy=0;" parent="1" source="UmW8kJtrCGWKn92JYN5o-51" target="UmW8kJtrCGWKn92JYN5o-52" edge="1">
          <mxGeometry width="50" height="50" relative="1" as="geometry">
            <mxPoint x="1290" y="830" as="sourcePoint" />
            <mxPoint x="1340" y="780" as="targetPoint" />
          </mxGeometry>
        </mxCell>
        <mxCell id="UmW8kJtrCGWKn92JYN5o-54" value="No" style="edgeStyle=orthogonalEdgeStyle;rounded=0;html=1;labelBackgroundColor=none;startSize=5;endArrow=classicThin;endFill=1;endSize=5;jettySize=auto;orthogonalLoop=1;strokeWidth=1;fontFamily=Verdana;fontSize=8;exitX=0.5;exitY=1;exitDx=0;exitDy=0;entryX=0.5;entryY=1;entryDx=0;entryDy=0;" parent="1" source="UmW8kJtrCGWKn92JYN5o-52" target="UmW8kJtrCGWKn92JYN5o-44" edge="1">
          <mxGeometry x="-0.5" y="10" relative="1" as="geometry">
            <mxPoint as="offset" />
            <mxPoint x="871.7299999999998" y="799" as="sourcePoint" />
            <mxPoint x="827" y="830" as="targetPoint" />
            <Array as="points">
              <mxPoint x="160" y="820" />
              <mxPoint x="160" y="1280" />
              <mxPoint x="550" y="1280" />
            </Array>
          </mxGeometry>
        </mxCell>
        <mxCell id="UmW8kJtrCGWKn92JYN5o-55" value="Yes" style="edgeStyle=orthogonalEdgeStyle;rounded=0;html=1;labelBackgroundColor=none;startSize=5;endArrow=classicThin;endFill=1;endSize=5;jettySize=auto;orthogonalLoop=1;strokeWidth=1;fontFamily=Verdana;fontSize=8;entryX=0.5;entryY=1;entryDx=0;entryDy=0;exitX=0.5;exitY=0;exitDx=0;exitDy=0;" parent="1" source="UmW8kJtrCGWKn92JYN5o-52" target="UmW8kJtrCGWKn92JYN5o-56" edge="1">
          <mxGeometry x="-0.6667" y="10" relative="1" as="geometry">
            <mxPoint as="offset" />
            <mxPoint x="830" y="640" as="sourcePoint" />
            <mxPoint x="809.9999999999997" y="590" as="targetPoint" />
          </mxGeometry>
        </mxCell>
        <mxCell id="UmW8kJtrCGWKn92JYN5o-56" value="&lt;font style=&quot;font-size: 12px;&quot;&gt;&lt;b&gt;Geosite Web Rede&lt;/b&gt;&lt;/font&gt;&lt;br&gt;O Geosite faz uma nova tentativa automática (com local de instalação diferente) de transferência de ponto genérico." style="whiteSpace=wrap;html=1;rounded=0;shadow=1;labelBackgroundColor=none;strokeWidth=1;fontFamily=Verdana;fontSize=8;align=center;" parent="1" vertex="1">
          <mxGeometry x="150.00000000000006" y="550" width="170" height="65" as="geometry" />
        </mxCell>
        <mxCell id="UmW8kJtrCGWKn92JYN5o-57" value="" style="endArrow=classic;html=1;rounded=0;fontSize=12;exitX=1;exitY=0.5;exitDx=0;exitDy=0;entryX=0;entryY=0;entryDx=0;entryDy=0;" parent="1" source="UmW8kJtrCGWKn92JYN5o-56" target="UmW8kJtrCGWKn92JYN5o-48" edge="1">
          <mxGeometry width="50" height="50" relative="1" as="geometry">
            <mxPoint x="1290" y="740" as="sourcePoint" />
            <mxPoint x="1340" y="690" as="targetPoint" />
          </mxGeometry>
        </mxCell>
        <mxCell id="UmW8kJtrCGWKn92JYN5o-58" value="&lt;font style=&quot;font-size: 12px;&quot;&gt;&lt;b&gt;Geosite Web Rede&lt;/b&gt;&lt;/font&gt;&lt;br&gt;Usuário registra o lance na nova tela do projeto de Remoção informando dados do seu local de instalação (TIPO DO CABO, UTILIZAÇÃO e METRAGEM)" style="whiteSpace=wrap;html=1;rounded=0;shadow=1;labelBackgroundColor=none;strokeWidth=1;fontFamily=Verdana;fontSize=8;align=center;" parent="1" vertex="1">
          <mxGeometry x="198.75" y="290" width="175" height="70" as="geometry" />
        </mxCell>
        <mxCell id="tH0Oy9MxxvEVRa18XON7-1" value="&lt;font style=&quot;font-size: 12px;&quot;&gt;&lt;b&gt;Geosite Web Rede&lt;/b&gt;&lt;/font&gt;&lt;br&gt;Automaticamente o Geosite cria um lance de cabo fictício em cadastro com FID único mas sem geometria, com atributos default" style="whiteSpace=wrap;html=1;rounded=0;shadow=1;labelBackgroundColor=none;strokeWidth=1;fontFamily=Verdana;fontSize=8;align=center;" parent="1" vertex="1">
          <mxGeometry x="190" y="415" width="192.5" height="70" as="geometry" />
        </mxCell>
        <mxCell id="tH0Oy9MxxvEVRa18XON7-2" value="" style="endArrow=classic;html=1;rounded=0;exitX=0.5;exitY=1;exitDx=0;exitDy=0;entryX=0.5;entryY=0;entryDx=0;entryDy=0;" parent="1" source="UmW8kJtrCGWKn92JYN5o-58" target="tH0Oy9MxxvEVRa18XON7-1" edge="1">
          <mxGeometry width="50" height="50" relative="1" as="geometry">
            <mxPoint x="1000" y="500" as="sourcePoint" />
            <mxPoint x="1050" y="450" as="targetPoint" />
          </mxGeometry>
        </mxCell>
        <mxCell id="tH0Oy9MxxvEVRa18XON7-3" value="" style="endArrow=classic;html=1;rounded=0;exitX=1;exitY=0.25;exitDx=0;exitDy=0;entryX=0;entryY=0.5;entryDx=0;entryDy=0;" parent="1" source="tH0Oy9MxxvEVRa18XON7-1" target="UmW8kJtrCGWKn92JYN5o-13" edge="1">
          <mxGeometry width="50" height="50" relative="1" as="geometry">
            <mxPoint x="1000" y="500" as="sourcePoint" />
            <mxPoint x="1050" y="450" as="targetPoint" />
          </mxGeometry>
        </mxCell>
        <mxCell id="tH0Oy9MxxvEVRa18XON7-5" value="Lance veio originalmente do desenho do Cadastro do Geosite?" style="rhombus;whiteSpace=wrap;html=1;rounded=0;shadow=1;labelBackgroundColor=none;strokeWidth=1;fontFamily=Verdana;fontSize=8;align=center;fillColor=#FFCCCC;" parent="1" vertex="1">
          <mxGeometry x="210" y="970" width="200" height="80" as="geometry" />
        </mxCell>
        <mxCell id="tH0Oy9MxxvEVRa18XON7-8" value="No" style="edgeStyle=orthogonalEdgeStyle;rounded=0;html=1;labelBackgroundColor=none;startSize=5;endArrow=classicThin;endFill=1;endSize=5;jettySize=auto;orthogonalLoop=1;strokeWidth=1;fontFamily=Verdana;fontSize=8;exitX=0.5;exitY=1;exitDx=0;exitDy=0;entryX=0.5;entryY=0;entryDx=0;entryDy=0;entryPerimeter=0;" parent="1" source="tH0Oy9MxxvEVRa18XON7-5" target="tH0Oy9MxxvEVRa18XON7-12" edge="1">
          <mxGeometry x="-0.5" y="10" relative="1" as="geometry">
            <mxPoint as="offset" />
            <mxPoint x="1850.005" y="1125" as="sourcePoint" />
            <mxPoint x="1850" y="1180" as="targetPoint" />
          </mxGeometry>
        </mxCell>
        <mxCell id="tH0Oy9MxxvEVRa18XON7-9" value="Yes" style="edgeStyle=orthogonalEdgeStyle;rounded=0;html=1;labelBackgroundColor=none;startSize=5;endArrow=classicThin;endFill=1;endSize=5;jettySize=auto;orthogonalLoop=1;strokeWidth=1;fontFamily=Verdana;fontSize=8;exitX=0.5;exitY=0;exitDx=0;exitDy=0;entryX=0.5;entryY=1;entryDx=0;entryDy=0;entryPerimeter=0;" parent="1" source="tH0Oy9MxxvEVRa18XON7-5" target="tH0Oy9MxxvEVRa18XON7-13" edge="1">
          <mxGeometry x="-0.6667" y="10" relative="1" as="geometry">
            <mxPoint as="offset" />
            <mxPoint x="1960.9399999999996" y="1020" as="sourcePoint" />
            <mxPoint x="1910" y="1020" as="targetPoint" />
          </mxGeometry>
        </mxCell>
        <mxCell id="tH0Oy9MxxvEVRa18XON7-10" value="" style="endArrow=classic;html=1;rounded=0;entryX=1;entryY=0.5;entryDx=0;entryDy=0;exitX=0;exitY=0.25;exitDx=0;exitDy=0;" parent="1" source="UmW8kJtrCGWKn92JYN5o-30" target="tH0Oy9MxxvEVRa18XON7-5" edge="1">
          <mxGeometry width="50" height="50" relative="1" as="geometry">
            <mxPoint x="1630" y="1025" as="sourcePoint" />
            <mxPoint x="1680" y="975" as="targetPoint" />
          </mxGeometry>
        </mxCell>
        <mxCell id="tH0Oy9MxxvEVRa18XON7-11" value="" style="endArrow=classic;html=1;rounded=0;exitX=0;exitY=0;exitDx=0;exitDy=0;entryX=1;entryY=1;entryDx=0;entryDy=0;" parent="1" source="UmW8kJtrCGWKn92JYN5o-44" target="tH0Oy9MxxvEVRa18XON7-5" edge="1">
          <mxGeometry width="50" height="50" relative="1" as="geometry">
            <mxPoint x="1680" y="1180" as="sourcePoint" />
            <mxPoint x="1730" y="1130" as="targetPoint" />
          </mxGeometry>
        </mxCell>
        <mxCell id="tH0Oy9MxxvEVRa18XON7-12" value="&lt;font style=&quot;font-size: 12px;&quot;&gt;&lt;b&gt;Geosite Web Rede&lt;/b&gt;&lt;/font&gt;&lt;br&gt;Automaticamente o Geosite apaga também o seu registro do Cadastro." style="strokeWidth=1;html=1;shape=mxgraph.flowchart.terminator;whiteSpace=wrap;rounded=0;shadow=1;labelBackgroundColor=none;fontFamily=Verdana;fontSize=8;align=center;fillColor=#FFCCCC;" parent="1" vertex="1">
          <mxGeometry x="225" y="1100" width="170" height="60" as="geometry" />
        </mxCell>
        <mxCell id="tH0Oy9MxxvEVRa18XON7-13" value="&lt;font style=&quot;font-size: 12px;&quot;&gt;&lt;b&gt;Geosite Web Rede&lt;/b&gt;&lt;/font&gt;&lt;br&gt;O Geosite mantém o seu registro do Cadastro." style="strokeWidth=1;html=1;shape=mxgraph.flowchart.terminator;whiteSpace=wrap;rounded=0;shadow=1;labelBackgroundColor=none;fontFamily=Verdana;fontSize=8;align=center;fillColor=#FFCCCC;" parent="1" vertex="1">
          <mxGeometry x="225" y="870" width="170" height="50" as="geometry" />
        </mxCell>
        <mxCell id="tH0Oy9MxxvEVRa18XON7-15" value="&lt;font style=&quot;font-size: 12px;&quot;&gt;&lt;b&gt;Geosite Web Rede&lt;/b&gt;&lt;/font&gt;&lt;br&gt;Status do registro desse lance na nova tela do projeto de Remoção é setado para &quot;Pronto para a remoção&quot;." style="strokeWidth=1;html=1;shape=mxgraph.flowchart.terminator;whiteSpace=wrap;rounded=0;shadow=1;labelBackgroundColor=none;fontFamily=Verdana;fontSize=8;align=center;fillColor=#CCFF99;" parent="1" vertex="1">
          <mxGeometry x="1016.56" y="805" width="166.88" height="65" as="geometry" />
        </mxCell>
        <mxCell id="UmW8kJtrCGWKn92JYN5o-22" value="Tentativa de criiar o projeto de transferência&amp;nbsp; foi bem sucedida?" style="rhombus;whiteSpace=wrap;html=1;rounded=0;shadow=1;labelBackgroundColor=none;strokeWidth=1;fontFamily=Verdana;fontSize=8;align=center;" parent="1" vertex="1">
          <mxGeometry x="1010" y="657.5" width="175.63" height="90" as="geometry" />
        </mxCell>
      </root>
    </mxGraphModel>
  </diagram>
</mxfile>
